<svg xmlns="http://www.w3.org/2000/svg" viewBox="0 0 64 64">
  <rect width="64" height="64" rx="14" fill="#0d0d0d"/>
  <path d="M14 38c0-2 1.5-3.5 3.5-3.5h29c2 0 3.5 1.5 3.5 3.5v4a3 3 0 0 1-3 3h-30a3 3 0 0 1-3-3z" fill="#2563eb"/>
  <circle cx="22" cy="45" r="4" fill="#f3f4f6"/>
  <circle cx="42" cy="45" r="4" fill="#f3f4f6"/>
  <path d="M18 34l4-9c.8-1.8 2.5-3 4.5-3h11c2 0 3.7 1.2 4.5 3l4 9z" fill="#2563eb"/>
  <circle cx="32" cy="14" r="3" fill="#f3f4f6"/>
  <path d="M32 8v4M27 10l2 3M37 10l-2 3" stroke="#f3f4f6" stroke-width="1.6" stroke-linecap="round"/>
</svg>
